<?xml version="1.0" encoding="UTF-8"?>
<!DOCTYPE svg PUBLIC "-//W3C//DTD SVG 1.1//EN" "http://www.w3.org/Graphics/SVG/1.1/DTD/svg11.dtd">
<!-- Creator: CorelDRAW 2019 (64 Bit) -->
<svg xmlns="http://www.w3.org/2000/svg" xml:space="preserve" width="176.389mm" height="105.833mm" version="1.1" style="shape-rendering:geometricPrecision; text-rendering:geometricPrecision; image-rendering:optimizeQuality; fill-rule:evenodd; clip-rule:evenodd"
viewBox="0 0 17638.88 10583.32"
 xmlns:xlink="http://www.w3.org/1999/xlink"
 xmlns:xodm="http://www.corel.com/coreldraw/odm/2003">
 <defs>
  <style type="text/css">
   <![CDATA[
    .fil2 {fill:#77ADE6}
    .fil1 {fill:#AA9FFB}
    .fil3 {fill:#ACE1E6}
    .fil0 {fill:#333333;fill-rule:nonzero}
   ]]>
  </style>
 </defs>
 <g id="Camada_x0020_1">
  <metadata id="CorelCorpID_0Corel-Layer"/>
  <g id="_2706161900480">
   <path class="fil0" d="M15874.99 6727.78l-1804.81 0 0 -369.31 1286.27 -1469.83 -1286.27 0 0 -368.65 1804.81 0 0 367.98 -1288.96 1471.84 1288.96 -0.67 0 368.64zm-2033.73 -1838.25c-172.17,0 -320.05,54.94 -442.94,177.81 -123.55,122.9 -185.01,270.1 -185.01,442.27l0 1218.23 -364.6 0 0 -2207.91 364.6 0 0 182.3c182.32,-148.53 391.64,-184.61 627.95,-184.61l0 371.91zm-1622.55 550.03c-41.84,-172.85 -133,-313.98 -272.76,-425.38 -139.76,-110.73 -299.79,-166.09 -478.71,-166.09 -179.61,0 -338.96,56.03 -478.74,168.1 -139.77,112.1 -230.92,253.2 -272.77,423.37l1502.98 0zm390.27 184.32c0,61.46 -4.72,122.89 -14.85,184.33l-1878.4 0c41.85,168.79 133,309.24 272.77,420.65 139.78,111.42 299.13,166.79 478.74,166.79 144.48,0 278.18,-36.47 399.71,-110.08 55.48,-33.59 105.2,-72.26 149.14,-116.04l453.65 0c-79.35,148.65 -190.54,275.06 -334.07,379.39 -197.82,143.81 -420.64,215.38 -668.43,215.38 -314.65,0 -583.39,-112.07 -806.89,-335.57 -223.47,-223.49 -334.89,-492.23 -334.89,-806.87 0,-314.65 111.42,-583.37 334.89,-806.86 223.5,-223.5 492.24,-335.57 806.89,-335.57 313.96,0 583.35,112.07 806.18,335.57 223.47,224.16 335.56,493.55 335.56,808.88zm-2840.31 -2.02c0,-214.05 -75.62,-396.35 -227.55,-546.91 -151.92,-151.24 -335.57,-226.86 -550.27,-226.86 -214.73,0 -398.39,75.62 -550.3,226.86 -151.92,150.56 -227.54,332.86 -227.54,546.91 0,213.37 75.62,396.34 227.54,546.9 151.91,151.26 335.57,226.89 550.3,226.89 214.7,0 398.35,-75.63 550.27,-226.89 151.93,-150.56 227.55,-333.53 227.55,-546.9zm364.59 0c0,314.64 -112.07,583.38 -336.24,806.87 -224.16,223.5 -493.55,335.57 -808.21,335.57 -298.44,0 -556.37,-100.6 -775.8,-301.82l0 2356.93 -364.62 0 0 -3211.82c0,-384.07 264.28,-1128.16 1140.42,-1128.16 314.66,0 584.05,112.07 808.21,335.57 224.17,223.49 336.24,492.21 336.24,806.86zm-3733.56 0c0,-214.05 -75.64,-396.35 -227.57,-546.91 -151.92,-151.24 -335.56,-226.86 -550.27,-226.86 -214.73,0 -398.37,75.62 -550.3,226.86 -151.92,150.56 -227.54,332.86 -227.54,546.91 0,213.37 75.62,396.34 227.54,546.9 151.93,151.26 335.57,226.89 550.3,226.89 214.71,0 398.35,-75.63 550.27,-226.89 151.93,-150.56 227.57,-333.53 227.57,-546.9zm364.59 0c0,314.64 -112.07,583.38 -336.25,806.87 -224.15,223.5 -493.56,335.57 -808.22,335.57 -298.44,0 -556.37,-100.6 -775.8,-301.82l0 2356.93 -364.62 0 0 -3191.4c0,-306.05 191.88,-1148.58 1140.42,-1148.58 314.66,0 584.07,112.07 808.22,335.57 224.18,223.49 336.25,492.21 336.25,806.86zm679.59 1105.98l-364.62 0 0 -2207.91 364.62 0 0 2207.91z"/>
   <path class="fil1" d="M5622.24 4069.63c636.7,0 1152.87,-516.17 1152.87,-1152.86 0,-636.7 -516.17,-1152.87 -1152.87,-1152.87 -636.68,0 -1152.85,516.17 -1152.85,1152.87 0,636.69 516.17,1152.86 1152.85,1152.86zm0 -374.37c429.95,0 778.5,-348.55 778.5,-778.49 0,-429.95 -348.55,-778.5 -778.5,-778.5 -429.93,0 -778.48,348.55 -778.48,778.5 0,429.94 348.55,778.49 778.48,778.49z"/>
   <path class="fil2" d="M2916.75 4069.63c636.7,0 1152.87,-516.17 1152.87,-1152.86 0,-636.7 -516.17,-1152.87 -1152.87,-1152.87 -636.68,0 -1152.85,516.17 -1152.85,1152.87 0,636.69 516.17,1152.86 1152.85,1152.86zm0 -374.37c429.95,0 778.5,-348.55 778.5,-778.49 0,-429.95 -348.55,-778.5 -778.5,-778.5 -429.93,0 -778.48,348.55 -778.48,778.5 0,429.94 348.55,778.49 778.48,778.49z"/>
   <path class="fil3" d="M2916.75 6776.71c-636.69,0 -1152.87,-516.17 -1152.87,-1152.86 0,-636.7 516.18,-1152.87 1152.87,-1152.87 636.69,0 1152.86,516.17 1152.86,1152.87 0,636.69 -516.17,1152.86 -1152.86,1152.86zm0 -374.37c-429.95,0 -778.5,-348.55 -778.5,-778.49 0,-429.95 348.55,-778.5 778.5,-778.5 429.94,0 778.49,348.55 778.49,778.5 0,429.94 -348.55,778.49 -778.49,778.49z"/>
  </g>
 </g>
</svg>
